<?xml version="1.0" encoding="UTF-8"?>
<!DOCTYPE svg PUBLIC "-//W3C//DTD SVG 1.1//EN" "http://www.w3.org/Graphics/SVG/1.1/DTD/svg11.dtd">
<!-- Creator: CorelDRAW -->
<svg xmlns="http://www.w3.org/2000/svg" xml:space="preserve" width="64px" height="64px" style="shape-rendering:geometricPrecision; text-rendering:geometricPrecision; image-rendering:optimizeQuality; fill-rule:evenodd; clip-rule:evenodd"
viewBox="0 0 640 640"
 xmlns:xlink="http://www.w3.org/1999/xlink">
 <defs>
  <style type="text/css">
   <![CDATA[
    .fil0 {fill:black}
   ]]>
  </style>
 </defs>
 <g id="Layer_x0020_1">
  <metadata id="CorelCorpID_0Corel-Layer"/>
  <polygon class="fil0" points="466.482,-0.0118112 639.988,173.494 173.494,639.988 0,466.482 12.8269,453.667 12.945,453.797 45.036,485.876 49.6423,490.482 54.2487,485.876 66.5914,473.533 71.2095,468.927 66.5914,464.309 34.5122,432.23 34.3823,432.112 51.6621,414.832 51.7802,414.962 141.226,504.42 145.844,509.014 150.462,504.396 162.805,492.053 167.388,487.459 162.805,482.852 73.3474,393.395 73.2174,393.276 90.4854,375.997 90.6153,376.127 138.734,424.245 143.34,428.864 147.959,424.245 160.289,411.915 164.908,407.296 160.289,402.69 112.171,354.559 112.053,354.441 129.309,337.173 129.439,337.292 161.53,369.382 166.112,373.977 170.742,369.359 183.073,357.016 187.691,352.41 183.073,347.815 151.006,315.748 150.888,315.618 168.156,298.35 168.274,298.468 257.732,387.926 262.35,392.532 266.956,387.926 279.299,375.583 283.917,370.977 279.299,366.359 189.829,276.913 189.711,276.783 206.991,259.515 207.097,259.633 255.239,307.764 259.822,312.37 264.452,307.74 276.795,295.397 281.401,290.803 276.795,286.196 228.676,238.078 228.534,237.96 245.814,220.68 245.932,220.81 278.023,252.889 282.629,257.507 287.236,252.889 299.578,240.546 304.197,235.94 299.578,231.334 267.499,199.243 267.381,199.124 284.649,181.857 284.779,181.975 374.213,271.432 378.831,276.051 383.45,271.432 395.792,259.102 400.399,254.483 395.792,249.877 306.323,160.419 306.205,160.289 323.472,143.021 323.591,143.14 371.721,191.27 376.327,195.876 380.946,191.27 393.276,178.927 397.895,174.321 393.276,169.703 345.158,121.584 345.028,121.454 362.296,104.186 362.414,104.304 394.517,136.395 399.111,141.002 403.729,136.395 416.06,124.053 420.69,119.446 416.06,114.828 383.993,82.749 383.863,82.6191 401.143,65.3512 401.261,65.4811 490.719,154.939 495.337,159.545 499.943,154.939 512.286,142.596 516.88,137.99 512.286,133.372 422.804,43.9139 422.698,43.7958 439.978,26.5161 440.096,26.646 488.226,74.7647 492.821,79.3829 497.439,74.7647 509.782,62.422 514.4,57.8157 509.782,53.2093 461.663,5.0788 461.521,4.96069 "/>
 </g>
</svg>
